<svg version="1.1" xmlns="http://www.w3.org/2000/svg" xmlns:xlink="http://www.w3.org/1999/xlink"
role="img" viewBox="0 0 630 630">
    <rect width="630" height="630" rx="50" fill="#f7df1e" />
    <path d="m423.2 492.19
    c 12.69 20.72 29.2 35.95 58.4 35.95 24.53 0 40.2 -12.26 40.2 -29.2 0 -20.3 -16.1 -27.49 -43.1 -39.3
    l -14.8 -6.35
    c -42.72 -18.2 -71.1 -41 -71.1 -89.2 0 -44.4 33.83 -78.2 86.7 -78.2 37.64 0 64.7 13.1 84.2 47.4
    l -46.1 29.6
    c -10.15 -18.2 -21.1 -25.37 -38.1 -25.37 -17.34 0 -28.33 11 -28.33 25.37 0 17.76 11 24.95 36.4 35.95
    l 14.8 6.34
    c 50.3 21.57 78.7 43.56 78.7 93 0 53.3 -41.87 82.5 -98.1 82.5 -54.98 0 -90.5 -26.2 -107.88 -60.54 z
    m -209.13 5.13
    c 9.3 16.5 17.76 30.45 38.1 30.45 19.45 0 31.72 -7.61 31.72 -37.2
    v -201.3
    h 59.2
    v 202.1
    c 0 61.3 -35.94 89.2 -88.4 89.2 -47.4 0 -74.85 -24.53-88.81 -54.075 z"/>
</svg>